<svg width="51" height="51" viewBox="0 0 51 51" fill="none" xmlns="http://www.w3.org/2000/svg">
<g clip-path="url(#clip0_18_492)">
<path d="M24.2796 0.463638C24.1721 0.473403 23.8304 0.507579 23.5228 0.531991C16.4288 1.17158 9.7839 4.99933 5.57532 10.8825C3.2318 14.1537 1.73292 17.8643 1.16657 21.7946C0.966398 23.1665 0.941986 23.5717 0.941986 25.4319C0.941986 27.2921 0.966398 27.6973 1.16657 29.0692C2.52386 38.4482 9.19802 46.3283 18.2499 49.2479C19.8708 49.7703 21.5796 50.1268 23.5228 50.3416C24.2796 50.4246 27.5507 50.4246 28.3075 50.3416C31.6616 49.9705 34.5032 49.1405 37.3056 47.71C37.7353 47.4903 37.8183 47.4317 37.7597 47.3829C37.7206 47.3536 35.8897 44.8978 33.6927 41.9293L29.6989 36.5343L24.6945 29.1278C21.9409 25.056 19.6755 21.7262 19.656 21.7262C19.6364 21.7213 19.6169 25.012 19.6072 29.0302C19.5925 36.0656 19.5876 36.3488 19.4997 36.5148C19.3728 36.754 19.2752 36.8517 19.0701 36.9591C18.9139 37.0372 18.7772 37.0519 18.0399 37.0519H17.1953L16.9707 36.9103C16.8242 36.8175 16.7168 36.6955 16.6436 36.5539L16.541 36.3342L16.5508 26.5451L16.5655 16.7511L16.7168 16.5607C16.7949 16.4582 16.9609 16.3263 17.0781 16.2629C17.2783 16.1652 17.3564 16.1555 18.201 16.1555C19.197 16.1555 19.363 16.1945 19.6218 16.4777C19.695 16.5558 22.4047 20.6375 25.6466 25.554C28.8885 30.4705 33.3216 37.1837 35.4992 40.4793L39.4538 46.4699L39.654 46.3381C41.4263 45.1858 43.3011 43.5454 44.7854 41.8366C47.9442 38.209 49.9802 33.7856 50.6637 29.0692C50.8639 27.6973 50.8883 27.2921 50.8883 25.4319C50.8883 23.5717 50.8639 23.1665 50.6637 21.7946C49.3064 12.4156 42.6323 4.53551 33.5804 1.61587C31.9839 1.09834 30.2848 0.741931 28.3807 0.527108C27.912 0.478285 24.6848 0.424579 24.2796 0.463638ZM34.5032 15.5696C34.7375 15.6868 34.9279 15.9113 34.9963 16.1457C35.0353 16.2726 35.0451 18.9872 35.0353 25.1048L35.0207 33.8832L33.473 31.5104L31.9204 29.1376V22.7564C31.9204 18.6308 31.9399 16.3117 31.9692 16.1994C32.0473 15.926 32.2182 15.7112 32.4526 15.5842C32.6528 15.4817 32.726 15.4719 33.4925 15.4719C34.2151 15.4719 34.342 15.4817 34.5032 15.5696Z" fill="black"/>
<path d="M39.2098 46.5773C39.0389 46.6847 38.9852 46.7579 39.1366 46.6749C39.244 46.6114 39.4197 46.4796 39.3905 46.4747C39.3758 46.4747 39.2928 46.5236 39.2098 46.5773ZM38.8729 46.797C38.785 46.8653 38.785 46.8702 38.8925 46.8165C38.951 46.7872 38.9999 46.753 38.9999 46.7433C38.9999 46.7042 38.9755 46.714 38.8729 46.797ZM38.6288 46.9434C38.5409 47.0118 38.5409 47.0167 38.6483 46.963C38.7069 46.9337 38.7557 46.8995 38.7557 46.8897C38.7557 46.8507 38.7313 46.8604 38.6288 46.9434ZM38.3847 47.0899C38.2968 47.1583 38.2968 47.1631 38.4042 47.1094C38.4628 47.0801 38.5116 47.046 38.5116 47.0362C38.5116 46.9971 38.4872 47.0069 38.3847 47.0899ZM38.0136 47.2852C37.8281 47.3828 37.8379 47.4219 38.0234 47.3291C38.1064 47.2852 38.1699 47.2413 38.1699 47.2315C38.1699 47.1973 38.165 47.2022 38.0136 47.2852Z" fill="black"/>
</g>
<defs>
<clipPath id="clip0_18_492">
<rect width="50" height="50" fill="white" transform="translate(0.915222 0.424561)"/>
</clipPath>
</defs>
</svg>
