<svg width="51" height="51" viewBox="0 0 51 51" fill="none" xmlns="http://www.w3.org/2000/svg">
<g clip-path="url(#clip0_17_395)">
<path d="M24.726 40.2456C24.561 40.2456 24.3971 40.2044 24.2524 40.1252L22.745 39.2765C22.5198 39.1567 22.6297 39.1144 22.704 39.09C23.0042 38.99 23.0651 38.9675 23.3855 38.7944C23.4192 38.7761 23.4633 38.7826 23.4978 38.8019L24.6558 39.4554C24.6977 39.4769 24.757 39.4769 24.7958 39.4554L29.3112 36.9768C29.353 36.9542 29.3802 36.908 29.3802 36.8607V31.9056C29.3802 31.8562 29.353 31.8121 29.3103 31.7874L24.7967 29.3109C24.7549 29.2873 24.6995 29.2873 24.6577 29.3109L20.1449 31.7874C20.1012 31.8111 20.0734 31.8573 20.0734 31.9046V36.8597C20.0734 36.907 20.1005 36.9521 20.1434 36.9747L21.38 37.654C22.0513 37.9732 22.4616 37.597 22.4616 37.2187V32.3281C22.4616 32.2582 22.5193 32.2045 22.5928 32.2045H23.1647C23.2359 32.2045 23.2947 32.2582 23.2947 32.3281V37.2208C23.2947 38.0721 22.8064 38.5612 21.9575 38.5612C21.6964 38.5612 21.4907 38.5612 20.9166 38.2924L19.732 37.6432C19.4393 37.482 19.2584 37.181 19.2584 36.8597V31.9046C19.2584 31.5821 19.4393 31.2812 19.732 31.1221L24.252 28.6424C24.538 28.4887 24.9177 28.4887 25.2014 28.6424L29.7157 31.1231C30.0074 31.2833 30.1893 31.5832 30.1893 31.9056V36.8607C30.1893 37.1821 30.0074 37.482 29.7157 37.6432L25.2014 40.1229C25.0568 40.2025 24.8929 40.2433 24.7256 40.2433" fill="#689F63"/>
<path d="M26.1208 36.8312C24.1451 36.8312 23.7308 35.9687 23.7308 35.2453C23.7308 35.1765 23.7891 35.1217 23.8616 35.1217H24.4448C24.5092 35.1217 24.5635 35.1663 24.5737 35.2268C24.6618 35.792 24.9241 36.077 26.1188 36.077C27.0704 36.077 27.4751 35.8726 27.4751 35.3927C27.4751 35.1164 27.3598 34.9111 25.8814 34.7736C24.6449 34.6575 23.8808 34.3984 23.8808 33.4579C23.8808 32.5916 24.6494 32.0757 25.9368 32.0757C27.3824 32.0757 28.099 32.5529 28.1894 33.5783C28.1928 33.6138 28.1792 33.6482 28.1544 33.674C28.1295 33.6987 28.0945 33.7138 28.0583 33.7138H27.4717C27.4107 33.7138 27.3575 33.6729 27.3451 33.617C27.2038 33.0226 26.8625 32.8324 25.9345 32.8324C24.8958 32.8324 24.7749 33.1763 24.7749 33.4343C24.7749 33.7471 24.9173 33.8384 26.3188 34.0147C27.7068 34.1899 28.3657 34.4371 28.3657 35.3647C28.3657 36.2999 27.5452 36.8362 26.1142 36.8362M31.6142 31.5812H31.7656C31.8899 31.5812 31.9137 31.4985 31.9137 31.4501C31.9137 31.3233 31.8221 31.3233 31.7713 31.3233H31.6153L31.6142 31.5812ZM31.4299 31.1749H31.7656C31.8809 31.1749 32.107 31.1749 32.107 31.42C32.107 31.5909 31.9917 31.6264 31.9227 31.6479C32.0572 31.6565 32.0663 31.7403 32.0843 31.8586C32.0934 31.9327 32.1081 32.0606 32.1352 32.1036H31.9284C31.9227 32.0606 31.8911 31.8242 31.8911 31.8113C31.8775 31.7586 31.8583 31.7328 31.7893 31.7328H31.6187V32.1047H31.4299V31.1749ZM31.0264 31.6371C31.0264 32.0219 31.3531 32.3336 31.7543 32.3336C32.1589 32.3336 32.4856 32.0155 32.4856 31.6371C32.4856 31.2513 32.1544 30.9449 31.7532 30.9449C31.3576 30.9449 31.0253 31.247 31.0253 31.6361M32.6257 31.6393C32.6257 32.095 32.2335 32.4669 31.7554 32.4669C31.2807 32.4669 30.8851 32.0993 30.8851 31.6393C30.8851 31.1706 31.2898 30.8116 31.7554 30.8116C32.2245 30.8116 32.6246 31.1717 32.6246 31.6393" fill="#689F63"/>
<path fill-rule="evenodd" clip-rule="evenodd" d="M10.7433 20.8572C10.7433 20.6594 10.6336 20.4778 10.4542 20.3794L5.66676 17.76C5.58594 17.7149 5.49541 17.6912 5.40363 17.688H5.35412C5.26234 17.6912 5.17181 17.7149 5.08964 17.76L0.30247 20.3794C0.124113 20.4783 0.0128937 20.66 0.0128937 20.8577L0.0234052 27.9131C0.0234052 28.0109 0.0765282 28.1023 0.16695 28.1506C0.255112 28.2022 0.365879 28.2022 0.45404 28.1506L3.30007 26.6007C3.47979 26.499 3.58942 26.3193 3.58942 26.1235V22.8274C3.58942 22.6307 3.69906 22.4491 3.87821 22.3512L5.08986 21.6876C5.17983 21.6382 5.27862 21.6137 5.37922 21.6137C5.47823 21.6137 5.57927 21.638 5.66676 21.6875L6.87785 22.3509C7.05711 22.4487 7.1672 22.6304 7.1672 22.8271V26.1229C7.1672 26.3185 7.2783 26.4991 7.45711 26.6002L10.3013 28.149C10.3906 28.1995 10.5017 28.1995 10.5907 28.149C10.6784 28.1007 10.734 28.0093 10.734 27.9115L10.7433 20.8572ZM33.3339 24.5306C33.3339 24.5797 33.3064 24.6252 33.2615 24.6495L31.6172 25.5509C31.5726 25.5753 31.5174 25.5753 31.4729 25.5509L29.8283 24.6495C29.7831 24.6251 29.756 24.5796 29.756 24.5306V22.7253C29.756 22.6761 29.7831 22.6307 29.8272 22.606L31.4706 21.7031C31.5158 21.6784 31.5712 21.6784 31.6164 21.7031L33.261 22.606C33.3062 22.6307 33.3333 22.6761 33.3333 22.7253L33.3339 24.5306ZM33.7781 11.1592C33.6883 11.1117 33.5791 11.113 33.4905 11.1621C33.4024 11.2115 33.3479 11.3018 33.3479 11.3996V18.3862C33.3479 18.455 33.3095 18.5184 33.2468 18.5528C33.1847 18.5872 33.1072 18.5872 33.0445 18.5528L31.8453 17.896C31.6667 17.7977 31.4468 17.7977 31.2675 17.896L26.4785 20.5243C26.2996 20.6221 26.1892 20.8038 26.1892 20.9994V26.2576C26.1892 26.4543 26.2996 26.6349 26.4785 26.7338L31.2675 29.3639C31.4463 29.4617 31.6665 29.4617 31.8459 29.3639L36.6348 26.7327C36.8134 26.6338 36.9242 26.4532 36.9242 26.2565V13.1519C36.9242 12.9524 36.81 12.7689 36.6269 12.6714L33.7781 11.1592ZM49.7255 22.6778C49.9034 22.5795 50.0129 22.3981 50.0129 22.2025V20.9281C50.0129 20.7321 49.9033 20.5512 49.725 20.4525L44.9665 17.8256C44.7868 17.7267 44.5664 17.7267 44.3867 17.8256L39.5989 20.4536C39.4192 20.5525 39.3095 20.733 39.3095 20.9297V26.1858C39.3095 26.3836 39.4214 26.5663 39.6011 26.6641L44.3585 29.2427C44.5337 29.3384 44.7484 29.3394 44.9259 29.2459L47.8035 27.725C47.894 27.6766 47.9516 27.5853 47.9516 27.4864C47.9516 27.3875 47.8962 27.295 47.8058 27.2467L42.9886 24.6176C42.8981 24.5692 42.8428 24.4779 42.8428 24.38V22.7312C42.8428 22.6328 42.897 22.542 42.9874 22.493L44.4862 21.6708C44.5755 21.6213 44.6851 21.6213 44.7744 21.6708L46.2743 22.493C46.3636 22.5414 46.419 22.6328 46.419 22.7306V24.0268C46.419 24.1247 46.4743 24.216 46.5636 24.2655C46.6529 24.3138 46.7637 24.3138 46.853 24.2644L49.7255 22.6778Z" fill="#333333"/>
<path fill-rule="evenodd" clip-rule="evenodd" d="M44.6065 22.432C44.6405 22.413 44.683 22.413 44.7173 22.432L45.6362 22.9361C45.6706 22.955 45.6916 22.9898 45.6916 23.0275V24.0368C45.6916 24.0744 45.6706 24.1092 45.6362 24.1281L44.7173 24.6322C44.683 24.6513 44.6405 24.6513 44.6065 24.6322L43.6882 24.1281C43.6532 24.1092 43.6317 24.0744 43.6317 24.0368V23.0275C43.6317 22.9898 43.652 22.955 43.6871 22.9361L44.6065 22.432Z" fill="#689F63"/>
<mask id="mask0_17_395" style="mask-type:luminance" maskUnits="userSpaceOnUse" x="13" y="17" width="11" height="13">
<path d="M18.1791 17.8519L13.4173 20.4656C13.2389 20.5634 13.1295 20.744 13.1295 20.9392V26.1703C13.1295 26.3656 13.2389 26.5461 13.4173 26.6439L18.1795 29.2597C18.3575 29.3572 18.577 29.3572 18.7548 29.2597L23.5162 26.6439C23.6936 26.5461 23.8033 26.3655 23.8033 26.1703V20.9392C23.8033 20.744 23.6936 20.5634 23.5151 20.4656L18.7543 17.8519C18.665 17.8032 18.5656 17.7788 18.4661 17.7788C18.3666 17.7788 18.2672 17.8032 18.1779 17.8519" fill="white"/>
</mask>
<g mask="url(#mask0_17_395)">
<path d="M28.6153 20.0218L15.1972 13.7672L8.31725 27.1141L21.735 33.3691L28.6153 20.0218Z" fill="url(#paint0_linear_17_395)"/>
</g>
<mask id="mask1_17_395" style="mask-type:luminance" maskUnits="userSpaceOnUse" x="13" y="17" width="11" height="13">
<path d="M13.2475 26.5024C13.2931 26.5586 13.35 26.6073 13.4171 26.6438L17.5019 28.8876L18.1823 29.2595C18.284 29.3154 18.4 29.339 18.5139 29.331C18.5519 29.328 18.5899 29.3213 18.6269 29.3113L23.6492 20.5662C23.6108 20.5265 23.5658 20.4932 23.5154 20.4652L20.3974 18.753L18.7492 17.8512C18.7025 17.8254 18.6517 17.8071 18.6 17.7942L13.2475 26.5024Z" fill="white"/>
</mask>
<g mask="url(#mask1_17_395)">
<path d="M7.44603 21.8716L16.9206 34.0662L29.4508 25.2625L19.9757 13.0682L7.44603 21.8716Z" fill="url(#paint1_linear_17_395)"/>
</g>
<mask id="mask2_17_395" style="mask-type:luminance" maskUnits="userSpaceOnUse" x="13" y="17" width="11" height="13">
<path d="M18.4093 17.7818C18.3293 17.7894 18.2512 17.813 18.1792 17.8519L13.431 20.4581L18.5511 29.3268C18.6223 29.3171 18.6924 29.2945 18.7557 29.2597L23.5175 26.6439C23.6645 26.5629 23.7651 26.4257 23.7956 26.2703L18.576 17.7907C18.5375 17.7835 18.4991 17.7798 18.4596 17.7798C18.4437 17.7798 18.4279 17.7805 18.4121 17.7819" fill="white"/>
</mask>
<g mask="url(#mask2_17_395)">
<path d="M13.4307 17.7798V29.327H23.7934V17.7798H13.4307Z" fill="url(#paint2_linear_17_395)"/>
</g>
</g>
<defs>
<linearGradient id="paint0_linear_17_395" x1="21.9022" y1="16.8847" x2="15.5633" y2="30.4827" gradientUnits="userSpaceOnUse">
<stop offset="0.3" stop-color="#3E863D"/>
<stop offset="0.5" stop-color="#55934F"/>
<stop offset="0.8" stop-color="#5AAD45"/>
</linearGradient>
<linearGradient id="paint1_linear_17_395" x1="12.2401" y1="28.0388" x2="24.3196" y2="18.6533" gradientUnits="userSpaceOnUse">
<stop offset="0.57" stop-color="#3E863D"/>
<stop offset="0.72" stop-color="#619857"/>
<stop offset="1" stop-color="#76AC64"/>
</linearGradient>
<linearGradient id="paint2_linear_17_395" x1="13.4342" y1="23.5537" x2="23.7953" y2="23.5537" gradientUnits="userSpaceOnUse">
<stop offset="0.16" stop-color="#6BBF47"/>
<stop offset="0.38" stop-color="#79B461"/>
<stop offset="0.47" stop-color="#75AC64"/>
<stop offset="0.7" stop-color="#659E5A"/>
<stop offset="0.9" stop-color="#3E863D"/>
</linearGradient>
<clipPath id="clip0_17_395">
<rect width="50" height="50" fill="white" transform="translate(0.0128937 0.684937)"/>
</clipPath>
</defs>
</svg>
