<svg width="51" height="51" viewBox="0 0 51 51" fill="none" xmlns="http://www.w3.org/2000/svg">
<path d="M25.0134 50.5691C38.8205 50.5691 50.0134 39.3762 50.0134 25.5691C50.0134 11.762 38.8205 0.569092 25.0134 0.569092C11.2063 0.569092 0.0134087 11.762 0.0134087 25.5691C0.0134087 39.3762 11.2063 50.5691 25.0134 50.5691Z" fill="url(#paint0_radial_17_416)"/>
<path d="M25.0134 48.7117C38.2812 48.7117 49.0368 38.3504 49.0368 25.569C49.0368 12.7877 38.2812 2.42639 25.0134 2.42639C11.7456 2.42639 0.989971 12.7877 0.989971 25.569C0.989971 38.3504 11.7456 48.7117 25.0134 48.7117Z" fill="#6181B6"/>
<path d="M29.8767 33.0728L31.0681 21.4086C31.3415 18.7711 31.1072 16.8023 30.404 15.5765C29.7204 14.3878 28.5486 13.7934 26.8298 13.7934H24.7595L25.3454 7.99846C25.365 7.77558 25.3454 7.5527 25.2673 7.36696C25.1892 7.18123 25.0915 7.10693 24.9743 7.10693H22.1228C21.9275 7.10693 21.7712 7.36696 21.7322 7.70129L20.4626 20.0713C20.3454 18.6597 20.072 17.471 19.6033 16.5051C18.7634 14.6849 17.4548 13.7563 15.6775 13.7563H10.1892C9.99388 13.7563 9.83763 14.0163 9.79857 14.3506L7.23997 39.4621C7.22044 39.6849 7.23997 39.9078 7.3181 40.0936C7.39622 40.2793 7.49388 40.3536 7.61107 40.3536H10.4822C10.6775 40.3536 10.8337 40.0936 10.8728 39.7592L11.4978 33.7043H13.6267C14.74 33.7043 15.697 33.4814 16.4197 33.0356C17.1814 32.5527 17.865 31.7726 18.4704 30.6953C18.9587 29.841 19.3689 28.8751 19.6814 27.835L19.1736 32.8499C19.154 33.0728 19.1736 33.2956 19.2517 33.4814C19.3298 33.6671 19.4275 33.7414 19.5447 33.7414H22.3962C22.5915 33.7414 22.7478 33.4814 22.7868 33.147L24.1931 19.4026H26.1462C26.9861 19.4026 27.2204 19.6998 27.2986 19.8484C27.3572 19.9598 27.4743 20.4056 27.3376 21.78L26.2048 32.887C26.1853 33.1099 26.2048 33.3328 26.2829 33.5185C26.3611 33.7043 26.4587 33.7785 26.5759 33.7785H29.5056C29.6814 33.6671 29.8376 33.4071 29.8767 33.0728ZM16.6736 23.4145C16.4978 25.1604 16.1658 26.4234 15.6775 27.1292C15.1892 27.835 14.3884 28.2065 13.3337 28.2065H12.0642L12.9822 19.2169H14.6228C15.8337 19.2169 16.322 19.6998 16.5173 20.1084C16.7712 20.7028 16.8298 21.8543 16.6736 23.4145Z" fill="white"/>
<path d="M42.0642 16.5051C41.2243 14.6849 39.9158 13.7562 38.1384 13.7562H32.6111C32.4157 13.7562 32.2595 14.0163 32.2204 14.3506L29.6618 39.4249C29.6423 39.6477 29.6618 39.8706 29.74 40.0564C29.8181 40.2421 29.9158 40.3164 30.0329 40.3164H32.904C33.0993 40.3164 33.2556 40.0564 33.2947 39.722L33.9197 33.6671H36.0486C37.1618 33.6671 38.1189 33.4442 38.8415 32.9984C39.6033 32.5155 40.2868 31.7354 40.8923 30.6582C41.4001 29.7666 41.8298 28.7637 42.1423 27.6864C42.4548 26.6091 42.6892 25.4204 42.8259 24.1203C43.1579 20.8885 42.904 18.3625 42.0642 16.5051ZM39.0759 23.4145C38.9001 25.1604 38.5681 26.4234 38.0798 27.1292C37.5915 27.835 36.7907 28.2064 35.7361 28.2064H34.4665L35.3845 19.2168H37.0251C38.2361 19.2168 38.7243 19.6998 38.9197 20.1084C39.1931 20.7027 39.2517 21.8543 39.0759 23.4145Z" fill="white"/>
<path d="M14.6228 18.474C15.7165 18.474 16.4392 18.8455 16.8103 19.6256C17.1814 20.4057 17.2595 21.7058 17.0642 23.5632C16.8689 25.4948 16.4783 26.9064 15.9118 27.7236C15.3454 28.5409 14.4861 28.9495 13.3337 28.9495H11.5954L12.6697 18.474H14.6228ZM7.6306 39.5736H10.5017L11.1853 32.9242H13.6462C14.74 32.9242 15.6189 32.7013 16.322 32.2556C17.0251 31.8098 17.6501 31.104 18.2361 30.0639C18.7243 29.2095 19.115 28.2808 19.4079 27.2779C19.7009 26.2749 19.9158 25.1605 20.0329 23.9346C20.3454 20.9629 20.1111 18.6597 19.3493 16.9881C18.5876 15.3165 17.3767 14.4993 15.7165 14.4993H10.1892L7.6306 39.5736Z" fill="#000004"/>
<path d="M22.1423 7.84998H24.9939L24.3103 14.4993H26.8493C28.4509 14.4993 29.5447 15.0194 30.1501 16.0966C30.7556 17.1739 30.9314 18.8827 30.697 21.2601L29.5056 32.9243H26.615L27.7478 21.8173C27.8845 20.5543 27.8259 19.6999 27.6111 19.2541C27.3962 18.8084 26.9079 18.5483 26.1853 18.5483H23.9001L22.4353 32.9243H19.5837L22.1423 7.84998Z" fill="#000004"/>
<path d="M37.0251 18.474C38.1189 18.474 38.8415 18.8455 39.2126 19.6256C39.5837 20.4057 39.6618 21.7058 39.4665 23.5632C39.2712 25.4948 38.8806 26.9064 38.3142 27.7236C37.7478 28.5409 36.8884 28.9495 35.7361 28.9495H33.9978L35.072 18.474H37.0251ZM30.0329 39.5736H32.904L33.5876 32.9242H36.0486C37.1423 32.9242 38.0212 32.7013 38.7243 32.2556C39.4275 31.8098 40.0525 31.104 40.6384 30.0639C41.1267 29.2095 41.5173 28.2808 41.8103 27.2779C42.1032 26.2749 42.3181 25.1605 42.4353 23.9346C42.7478 20.9629 42.5134 18.6597 41.7517 16.9881C40.99 15.3165 39.779 14.4993 38.1189 14.4993H32.5915L30.0329 39.5736Z" fill="#000004"/>
<defs>
<radialGradient id="paint0_radial_17_416" cx="0" cy="0" r="1" gradientUnits="userSpaceOnUse" gradientTransform="translate(15.0235 9.36096) scale(32.8311 62.4425)">
<stop stop-color="white"/>
<stop offset="0.5" stop-color="#4C6B97"/>
<stop offset="1" stop-color="#231F20"/>
</radialGradient>
</defs>
</svg>
