<svg width="51" height="51" viewBox="0 0 51 51" fill="none" xmlns="http://www.w3.org/2000/svg">
<g clip-path="url(#clip0_17_385)">
<path d="M8.53129 0.159546H42.3294C43.0861 0.159546 43.6996 0.999007 43.6996 2.03455V48.2845C43.6996 49.3201 43.0861 50.1595 42.3294 50.1595H8.53129C7.77456 50.1595 7.1611 49.3201 7.1611 48.2845V2.03455C7.1611 0.999007 7.77456 0.159546 8.53129 0.159546Z" fill="white"/>
<path d="M8.53129 0.159546H42.3294C43.0861 0.159546 43.6996 0.999007 43.6996 2.03455V48.2845C43.6996 49.3201 43.0861 50.1595 42.3294 50.1595H8.53129C7.77456 50.1595 7.1611 49.3201 7.1611 48.2845V2.03455C7.1611 0.999007 7.77456 0.159546 8.53129 0.159546ZM27.4723 26.7595V22.6588H14.4685V26.7595H19.1111V45.0184H22.8069V26.7595H27.4723ZM28.9458 44.5363C29.5418 44.952 30.2467 45.264 31.0605 45.4719C31.8742 45.6797 32.7318 45.7838 33.6335 45.7838C34.5122 45.7838 35.347 45.6694 36.1378 45.4407C36.9287 45.212 37.6221 44.8351 38.2181 44.3101C38.8141 43.7851 39.2859 43.0992 39.6335 42.2519C39.9812 41.4045 40.1551 40.3572 40.1551 39.1097C40.1551 38.2053 40.0557 37.4128 39.8571 36.7319C39.6584 36.0509 39.3719 35.4453 38.9975 34.9151C38.6231 34.3849 38.1741 33.9094 37.6508 33.4884C37.1273 33.0674 36.537 32.6697 35.8799 32.2955C35.3986 32.0251 34.9669 31.7626 34.5848 31.508C34.2028 31.2534 33.878 30.9934 33.6106 30.7284C33.3432 30.4632 33.1369 30.1826 32.9917 29.8863C32.8465 29.5901 32.7739 29.2547 32.7739 28.8805C32.7739 28.5374 32.8389 28.2282 32.9688 27.9528C33.0986 27.6772 33.282 27.4407 33.519 27.2432C33.7558 27.0457 34.0461 26.8924 34.39 26.7832C34.7339 26.6742 35.1158 26.6195 35.5362 26.6195C35.8417 26.6195 36.1646 26.6507 36.5046 26.713C36.8447 26.7755 37.1866 26.8717 37.5303 27.0015C37.8742 27.1315 38.2085 27.2951 38.5333 27.4928C38.8581 27.6903 39.158 27.919 39.433 28.1788V23.5165C38.8752 23.2253 38.2659 23.0095 37.605 22.8694C36.9439 22.729 36.1856 22.6588 35.3299 22.6588C34.4587 22.6588 33.6335 22.7861 32.8541 23.0409C32.0747 23.2955 31.3891 23.6932 30.7969 24.2338C30.2046 24.7744 29.7367 25.463 29.3928 26.2997C29.0489 27.1367 28.877 28.1372 28.877 29.3015C28.877 30.7882 29.1923 32.0565 29.8227 33.1063C30.453 34.1563 31.41 35.0451 32.6938 35.7728C33.198 36.0536 33.6679 36.329 34.1034 36.5994C34.539 36.8695 34.9153 37.1503 35.2323 37.4413C35.5495 37.7324 35.7997 38.0494 35.9831 38.3924C36.1665 38.7355 36.2582 39.1253 36.2582 39.562C36.2582 39.8844 36.2009 40.1832 36.0862 40.4586C35.9717 40.7342 35.7978 40.9732 35.5648 41.1759C35.3317 41.3786 35.0414 41.5372 34.6937 41.6515C34.346 41.7659 33.9392 41.823 33.473 41.823C32.6784 41.823 31.8915 41.6334 31.1121 41.254C30.3327 40.8745 29.6106 40.3053 28.9458 39.5465V44.5363Z" fill="#3178C6"/>
</g>
<defs>
<clipPath id="clip0_17_385">
<rect width="50" height="50" fill="white" transform="translate(0.430328 0.159546)"/>
</clipPath>
</defs>
</svg>
