<svg width="51" height="51" viewBox="0 0 51 51" fill="none" xmlns="http://www.w3.org/2000/svg">
<g clip-path="url(#clip0_17_388)">
<path d="M4.11517 25.1763C4.11517 33.6653 9.04865 41.0015 16.2026 44.478L5.97201 16.4481C4.782 19.1154 4.11517 22.0671 4.11517 25.1763Z" fill="#464342"/>
<path d="M40.0407 24.094C40.0407 21.4435 39.0887 19.6079 38.2721 18.1792C37.1849 16.4126 36.1659 14.9165 36.1659 13.1499C36.1659 11.1785 37.6611 9.34329 39.7673 9.34329C39.8624 9.34329 39.9526 9.35513 40.0452 9.36043C36.2295 5.86476 31.1459 3.73047 25.5623 3.73047C18.0696 3.73047 11.4776 7.57465 7.64276 13.3972C8.14594 13.4123 8.62015 13.4229 9.02294 13.4229C11.2663 13.4229 14.7387 13.1507 14.7387 13.1507C15.8949 13.0826 16.0312 14.7806 14.8763 14.9173C14.8763 14.9173 13.7144 15.0541 12.4216 15.1218L20.2317 38.3521L24.9252 24.276L21.5838 15.121C20.4288 15.0532 19.3347 14.9165 19.3347 14.9165C18.179 14.8488 18.3145 13.0818 19.4702 13.1499C19.4702 13.1499 23.0121 13.4221 25.1195 13.4221C27.3624 13.4221 30.8353 13.1499 30.8353 13.1499C31.9923 13.0818 32.1282 14.7798 30.9728 14.9165C30.9728 14.9165 29.8085 15.0532 28.5181 15.121L36.2687 38.1754L38.4079 31.027C39.3351 28.0606 40.0407 25.93 40.0407 24.094Z" fill="#464342"/>
<path d="M25.9385 27.0522L19.5037 45.7504C21.425 46.3152 23.4569 46.6241 25.5623 46.6241C28.0598 46.6241 30.4549 46.1923 32.6844 45.4084C32.6268 45.3166 32.5746 45.219 32.5317 45.1129L25.9385 27.0522Z" fill="#464342"/>
<path d="M44.3812 14.8867C44.4734 15.5699 44.5257 16.3032 44.5257 17.092C44.5257 19.2683 44.1192 21.7148 42.8949 24.7738L36.3438 43.7144C42.7199 39.9963 47.0085 33.0886 47.0085 25.1766C47.0089 21.4479 46.0564 17.9417 44.3812 14.8867Z" fill="#464342"/>
<path d="M25.5623 0.17688C11.7772 0.17688 0.561462 11.3915 0.561462 25.1763C0.561462 38.9627 11.7772 50.1769 25.5623 50.1769C39.347 50.1769 50.5643 38.9627 50.5643 25.1763C50.5639 11.3915 39.347 0.17688 25.5623 0.17688ZM25.5623 49.031C12.4093 49.031 1.70781 38.3297 1.70781 25.1763C1.70781 12.0236 12.4089 1.3232 25.5623 1.3232C38.7148 1.3232 49.4155 12.0236 49.4155 25.1763C49.4155 38.3297 38.7148 49.031 25.5623 49.031Z" fill="#464342"/>
</g>
<defs>
<clipPath id="clip0_17_388">
<rect width="50" height="50" fill="white" transform="translate(0.561462 0.17688)"/>
</clipPath>
</defs>
</svg>
