<svg width="50" height="50" viewBox="0 0 50 50" fill="none" xmlns="http://www.w3.org/2000/svg">
<g clip-path="url(#clip0_17_480)">
<path d="M25 25C25 20.4445 30.5394 16.7515 37.3727 16.7515C44.2059 16.7515 49.7455 20.4445 49.7455 25C49.7455 29.5555 44.2059 33.2485 37.3727 33.2485C30.5394 33.2485 25 29.5555 25 25Z" fill="#1ABCFE"/>
<path d="M0.254517 41.497C0.254517 36.9416 5.79397 33.2485 12.6273 33.2485H25V41.497C25 46.0526 19.4606 49.7455 12.6273 49.7455C5.79397 49.7455 0.254517 46.0526 0.254517 41.497Z" fill="#0ACF83"/>
<path d="M25 0.254517V16.7515H37.3727C44.2061 16.7515 49.7455 13.0585 49.7455 8.503C49.7455 3.9475 44.2061 0.254517 37.3727 0.254517H25Z" fill="#FF7262"/>
<path d="M0.254517 8.50301C0.254517 13.0585 5.79397 16.7515 12.6273 16.7515H25V0.254517H12.6273C5.79397 0.254517 0.254517 3.94749 0.254517 8.50301Z" fill="#F24E1E"/>
<path d="M0.254517 25C0.254517 29.5555 5.88111 33.2485 12.8219 33.2485H25.3892V16.7515H12.8219C5.88111 16.7515 0.254517 20.4445 0.254517 25Z" fill="#A259FF"/>
</g>
<defs>
<clipPath id="clip0_17_480">
<rect width="50" height="50" fill="white"/>
</clipPath>
</defs>
</svg>
