<svg width="56" height="56" viewBox="0 0 56 56" fill="none" xmlns="http://www.w3.org/2000/svg">
<g clip-path="url(#clip0_23_4728)">
<path d="M41.9017 54.9231L34.1437 50.5167L32.4149 10.8435H51.4117L49.681 50.5105L41.9017 54.9231Z" fill="#264DE4"/>
<path d="M48.1994 47.9847L49.6784 14.0874H41.9133V51.5503L48.1994 47.9847Z" fill="#2965F1"/>
<path d="M36.3781 28.8016L36.5913 33.6673H41.9133V28.8016H36.3781Z" fill="#EBEBEB"/>
<path d="M35.9499 18.9531L36.166 23.8189H41.9133V18.9531H35.9499Z" fill="#EBEBEB"/>
<path d="M41.9133 41.4385L41.9029 41.4441L39.2542 39.9809L39.0849 36.1002H36.6976L37.0308 43.7402L41.9023 46.5071L41.9133 46.5009V41.4385Z" fill="#EBEBEB"/>
<path d="M36.8857 0.0620117H39.7661V2.52647H38.0902V4.99093H39.7661V7.45539H36.8857V0.0620117Z" fill="black"/>
<path d="M40.3421 0.0620117H43.2226V2.20502H41.5467V2.63362H43.2226V7.56254H40.3421V5.31238H42.018V4.88378H40.3421V0.0620117Z" fill="black"/>
<path d="M43.7986 0.0620117H46.6791V2.20502H45.0032V2.63362H46.6791V7.56254H43.7986V5.31238H45.4745V4.88378H43.7986V0.0620117Z" fill="black"/>
<path d="M47.4332 28.8015L47.8625 18.9531H41.9051V23.8189H45.2562L45.0398 28.8015H41.9051V33.6672H44.8336L44.5575 39.9778L41.9051 41.4425V46.5047L46.7805 43.7401L46.8163 42.9181L47.3751 30.1081L47.4332 28.8015Z" fill="white"/>
</g>
<g clip-path="url(#clip1_23_4728)">
<path d="M23.5574 12.7872L21.8069 50.7107L13.938 54.9292L6.0909 50.7165L4.34216 12.7872H23.5574Z" fill="#E44D26"/>
<path d="M13.9498 51.7046L20.3082 48.2958L21.8041 15.8884H13.9498V51.7046Z" fill="#F16529"/>
<path d="M10.5468 25.1923H13.9498V20.5404H7.91783L7.97538 21.7884L8.56665 34.6077H13.9498V29.9559H10.7666L10.5468 25.1923ZM11.0889 36.9337H8.67413L9.01112 44.2379L13.9387 46.883L13.9498 46.8772V42.0373L13.9392 42.0427L11.2602 40.6438L11.0889 36.9337Z" fill="#EBEBEB"/>
<path d="M6.12993 2.47961H7.35239V4.81523H8.47069V2.47961H9.69323V9.55246H8.47077V7.18406H7.35247V9.55246H6.13L6.12993 2.47961ZM11.3007 4.82514H10.2247V2.47961H13.6002V4.82514H12.5234V9.55246H11.301V4.82514H11.3007ZM14.1358 2.47961H15.4105L16.1946 4.96483L16.9779 2.47961H18.2531V9.55246H17.0356V6.04677L16.1946 8.56155H16.1735L15.3319 6.04677V9.55246H14.1358V2.47961ZM18.8615 2.47961H20.0843V7.21465H21.8035V9.55246H18.8614V2.47961H18.8615Z" fill="black"/>
<path d="M13.9415 34.6077H16.9037L16.6244 40.6409L13.9414 42.0412V46.8808L18.8729 44.2379L18.9091 43.4519L19.4745 31.205L19.5331 29.9559H13.9415V34.6077ZM13.9415 25.1809V25.1923H19.752L19.8002 24.1467L19.9099 21.7884L19.9674 20.5404H13.9415V25.1809Z" fill="white"/>
</g>
<defs>
<clipPath id="clip0_23_4728">
<rect width="26.882" height="55" fill="white" transform="translate(28.4723 0.0620117)"/>
</clipPath>
<clipPath id="clip1_23_4728">
<rect width="27.191" height="52.5824" fill="white" transform="translate(0.354279 2.47961)"/>
</clipPath>
</defs>
</svg>
