<svg width="93" height="29" viewBox="0 0 93 29" fill="none" xmlns="http://www.w3.org/2000/svg">
<path d="M12.7585 1.81818H18.2301V20.0739C18.2301 21.7614 17.8509 23.2273 17.0923 24.4716C16.3423 25.7159 15.2983 26.6747 13.9602 27.348C12.6222 28.0213 11.0668 28.358 9.29403 28.358C7.71733 28.358 6.28551 28.081 4.99858 27.527C3.72017 26.9645 2.70597 26.1122 1.95597 24.9702C1.20597 23.8196 0.835227 22.375 0.84375 20.6364H6.35369C6.37074 21.3267 6.51136 21.919 6.77557 22.4134C7.0483 22.8991 7.41903 23.2741 7.88778 23.5384C8.36506 23.794 8.92756 23.9219 9.57528 23.9219C10.2571 23.9219 10.8324 23.777 11.3011 23.4872C11.7784 23.1889 12.1406 22.7543 12.3878 22.1832C12.6349 21.6122 12.7585 20.9091 12.7585 20.0739V1.81818Z" fill="#F66B80"/>
<path d="M35.2969 19.6392V8.36364H40.7429V28H35.5142V24.4332H35.3097C34.8665 25.5838 34.1293 26.5085 33.098 27.2074C32.0753 27.9062 30.8267 28.2557 29.3523 28.2557C28.0398 28.2557 26.8849 27.9574 25.8878 27.3608C24.8906 26.7642 24.1108 25.9162 23.5483 24.8168C22.9943 23.7173 22.7131 22.4006 22.7045 20.8665V8.36364H28.1506V19.8949C28.1591 21.054 28.4702 21.9702 29.0838 22.6435C29.6974 23.3168 30.5199 23.6534 31.5511 23.6534C32.2074 23.6534 32.821 23.5043 33.392 23.206C33.9631 22.8991 34.4233 22.4474 34.7727 21.8509C35.1307 21.2543 35.3054 20.517 35.2969 19.6392ZM50.5451 1.81818V28H45.0991V1.81818H50.5451ZM54.9077 28V8.36364H60.3537V28H54.9077ZM57.6435 5.83239C56.8338 5.83239 56.1392 5.56392 55.5597 5.02699C54.9886 4.48153 54.7031 3.82954 54.7031 3.07102C54.7031 2.32102 54.9886 1.67756 55.5597 1.14062C56.1392 0.59517 56.8338 0.322442 57.6435 0.322442C58.4531 0.322442 59.1435 0.59517 59.7145 1.14062C60.294 1.67756 60.5838 2.32102 60.5838 3.07102C60.5838 3.82954 60.294 4.48153 59.7145 5.02699C59.1435 5.56392 58.4531 5.83239 57.6435 5.83239ZM73.6651 28.3835C71.6452 28.3835 69.9066 27.9744 68.4492 27.1562C67.0004 26.3295 65.8839 25.1619 65.0998 23.6534C64.3157 22.1364 63.9237 20.3423 63.9237 18.2713C63.9237 16.2514 64.3157 14.4787 65.0998 12.9531C65.8839 11.4276 66.9876 10.2386 68.4109 9.38636C69.8427 8.53409 71.5217 8.10795 73.4478 8.10795C74.7433 8.10795 75.9492 8.31676 77.0657 8.73438C78.1907 9.14347 79.1708 9.76136 80.006 10.5881C80.8498 11.4148 81.506 12.4545 81.9748 13.7074C82.4435 14.9517 82.6779 16.4091 82.6779 18.0795V19.5753H66.0969V16.2003H77.5515C77.5515 15.4162 77.381 14.7216 77.0401 14.1165C76.6992 13.5114 76.2262 13.0384 75.6211 12.6974C75.0245 12.348 74.3299 12.1733 73.5373 12.1733C72.7106 12.1733 71.9776 12.3651 71.3384 12.7486C70.7077 13.1236 70.2134 13.6307 69.8555 14.2699C69.4975 14.9006 69.3143 15.6037 69.3058 16.3793V19.5881C69.3058 20.5597 69.4847 21.3991 69.8427 22.1065C70.2092 22.8139 70.7248 23.3594 71.3896 23.7429C72.0543 24.1264 72.8427 24.3182 73.7546 24.3182C74.3597 24.3182 74.9137 24.233 75.4165 24.0625C75.9194 23.892 76.3498 23.6364 76.7077 23.2955C77.0657 22.9545 77.3384 22.5369 77.5259 22.0426L82.5629 22.375C82.3072 23.5852 81.783 24.642 80.9904 25.5455C80.2063 26.4403 79.1921 27.1392 77.9478 27.642C76.712 28.1364 75.2844 28.3835 73.6651 28.3835ZM89.4151 28.3324C88.5714 28.3324 87.8469 28.0341 87.2418 27.4375C86.6452 26.8324 86.3469 26.108 86.3469 25.2642C86.3469 24.429 86.6452 23.7131 87.2418 23.1165C87.8469 22.5199 88.5714 22.2216 89.4151 22.2216C90.2333 22.2216 90.9492 22.5199 91.5629 23.1165C92.1765 23.7131 92.4833 24.429 92.4833 25.2642C92.4833 25.8267 92.3384 26.3423 92.0487 26.8111C91.7674 27.2713 91.3967 27.642 90.9364 27.9233C90.4762 28.196 89.9691 28.3324 89.4151 28.3324Z" fill="black"/>
</svg>
