<svg width="51" height="51" viewBox="0 0 51 51" fill="none" xmlns="http://www.w3.org/2000/svg">
<g clip-path="url(#clip0_17_457)">
<path d="M25.0299 4.84744C20.6889 4.82873 16.4845 6.58108 13.1732 9.78924C9.86196 12.9974 7.66113 17.4507 6.96672 22.348C6.2723 27.2453 7.1299 32.2651 9.3852 36.5042C11.6405 40.7433 15.1455 43.9234 19.2695 45.4724C20.1809 45.6391 20.4726 44.9933 20.4726 44.4308V40.9099C15.4231 42.1599 14.3476 38.1808 14.3476 38.1808C14.0072 36.8869 13.2692 35.7771 12.2695 35.0558C10.6106 33.7641 12.3971 33.8058 12.3971 33.8058C12.9693 33.8904 13.5174 34.1217 14.0003 34.4825C14.4833 34.8432 14.8887 35.3241 15.1861 35.8891C15.6925 36.9181 16.5339 37.677 17.5272 38.0008C18.5206 38.3246 19.5857 38.1872 20.4908 37.6183C20.5739 36.5621 20.9806 35.5735 21.6393 34.8266C17.7382 34.3683 13.3997 32.5766 13.3997 24.6391C13.347 22.5588 14.0001 20.5358 15.2226 18.9933C14.6676 17.2004 14.7328 15.233 15.4049 13.4933C15.4049 13.4933 16.9361 12.9308 20.4179 15.5766C23.4031 14.6595 26.5473 14.6595 29.5325 15.5766C33.0143 12.8891 34.5455 13.4933 34.5455 13.4933C35.2176 15.233 35.2828 17.2004 34.7278 18.9933C35.9503 20.5358 36.6035 22.5588 36.5507 24.6391C36.5507 32.5974 32.2851 34.3474 28.22 34.8683C28.6578 35.3712 28.9965 35.9753 29.2134 36.64C29.4304 37.3047 29.5205 38.0147 29.4778 38.7224V44.4308C29.4778 44.9933 29.7695 45.6599 30.6992 45.4724C34.8157 43.9261 38.3156 40.7546 40.5713 36.5264C42.8271 32.2982 43.6913 27.2899 43.0088 22.3996C42.3264 17.5092 40.1419 13.0566 36.8472 9.84013C33.5525 6.62363 29.363 4.85362 25.0299 4.84744Z" fill="black"/>
</g>
<defs>
<clipPath id="clip0_17_457">
<rect width="50" height="50" fill="white" transform="translate(0.0299072 0.680786)"/>
</clipPath>
</defs>
</svg>
