<svg width="60" height="60" viewBox="0 0 60 60" fill="none" xmlns="http://www.w3.org/2000/svg">
<g clip-path="url(#clip0_137_4)">
<path d="M45.3244 59.8485L36.8612 55.0416L34.9752 11.7617H55.699L53.811 55.0348L45.3244 59.8485Z" fill="#264DE4"/>
<path d="M52.1947 52.2791L53.8081 15.3003H45.3371V56.1689L52.1947 52.2791Z" fill="#2965F1"/>
<path d="M39.2988 31.3523L39.5313 36.6603H45.3371V31.3523H39.2988Z" fill="#EBEBEB"/>
<path d="M38.8315 20.6086L39.0674 25.9168H45.3371V20.6086H38.8315Z" fill="#EBEBEB"/>
<path d="M45.3371 45.138L45.3257 45.1442L42.4363 43.5479L42.2516 39.3145H39.6472L40.0107 47.6489L45.3251 50.6674L45.3371 50.6606V45.138Z" fill="#EBEBEB"/>
<path d="M39.8524 0H42.9946V2.6885H41.1664V5.377H42.9946V8.06551H39.8524V0Z" fill="black"/>
<path d="M43.6231 0H46.7654V2.33783H44.9372V2.80539H46.7654V8.1824H43.6231V5.72768H45.4513V5.26011H43.6231V0Z" fill="black"/>
<path d="M47.3939 0H50.5361V2.33783H48.7079V2.80539H50.5361V8.1824H47.3939V5.72768H49.2221V5.26011H47.3939V0Z" fill="black"/>
<path d="M51.3588 31.3524L51.8272 20.6086H45.3281V25.9168H48.9839L48.7478 31.3524H45.3281V36.6604H48.5229L48.2217 43.5446L45.3281 45.1425V50.6649L50.6468 47.649L50.6858 46.7522L51.2955 32.7777L51.3588 31.3524Z" fill="white"/>
</g>
<g clip-path="url(#clip1_137_4)">
<path d="M25.3125 13.8821L23.4028 55.2531L14.8186 59.8551L6.25812 55.2594L4.3504 13.8821H25.3125Z" fill="#E44D26"/>
<path d="M14.8315 56.3374L21.7679 52.6186L23.3998 17.2651H14.8315V56.3374Z" fill="#F16529"/>
<path d="M11.1191 27.4149H14.8315V22.3401H8.25116L8.31394 23.7015L8.95896 37.6863H14.8315V32.6115H11.3589L11.1191 27.4149ZM11.7105 40.2237H9.07622L9.44384 48.1919L14.8194 51.0775L14.8315 51.0711V45.7912L14.82 45.7971L11.8974 44.271L11.7105 40.2237Z" fill="#EBEBEB"/>
<path d="M6.30072 2.63745H7.63432V5.1854H8.85428V2.63745H10.188V10.3533H8.85436V7.76958H7.6344V10.3533H6.3008L6.30072 2.63745ZM11.9416 5.19621H10.7677V2.63745H14.4501V5.19621H13.2755V10.3533H11.9419V5.19621H11.9416ZM15.0344 2.63745H16.425L17.2804 5.34859L18.1349 2.63745H19.526V10.3533H18.1979V6.52889L17.2804 9.27229H17.2573L16.3393 6.52889V10.3533H15.0344V2.63745ZM20.1897 2.63745H21.5237V7.80295H23.3991V10.3533H20.1896V2.63745H20.1897Z" fill="black"/>
<path d="M14.8224 37.6863H18.0539L17.7492 44.2679L14.8223 45.7955V51.0751L20.2022 48.1919L20.2416 47.3345L20.8584 33.9742L20.9224 32.6115H14.8224V37.6863ZM14.8224 27.4025V27.4149H21.1612L21.2137 26.2743L21.3334 23.7015L21.3961 22.3401H14.8224V27.4025Z" fill="white"/>
</g>
<defs>
<clipPath id="clip0_137_4">
<rect width="29.3258" height="60" fill="white" transform="translate(30.6741)"/>
</clipPath>
<clipPath id="clip1_137_4">
<rect width="29.6629" height="57.3626" fill="white" transform="translate(0 2.63745)"/>
</clipPath>
</defs>
</svg>
