<svg width="50" height="50" viewBox="0 0 50 50" fill="none" xmlns="http://www.w3.org/2000/svg">
<path d="M25.0011 30.1371C27.5773 30.1371 29.6657 27.7889 29.6657 24.8922C29.6657 21.9956 27.5773 19.6473 25.0011 19.6473C22.4249 19.6473 20.3365 21.9956 20.3365 24.8922C20.3365 27.7889 22.4249 30.1371 25.0011 30.1371Z" fill="#00D8FF"/>
<path fill-rule="evenodd" clip-rule="evenodd" d="M25.3438 13.8368C33.297 13.8977 41.9741 14.5501 47.9304 20.5224C48.1054 20.6981 48.2741 20.8808 48.4387 21.0694C49.8439 22.6798 50.5783 25.28 49.4439 27.4199C47.1168 31.8133 41.9126 33.7295 36.8741 34.909C29.3386 36.6729 21.4594 36.6869 13.9271 35.1338C9.59268 34.239 5.16037 32.6707 2.08015 29.39C0.881181 28.1133 -0.143824 26.4337 0.0165939 24.5644C0.277012 21.5402 2.85723 19.5994 5.02912 18.2853C11.0614 14.6356 18.4115 13.8193 25.3438 13.8368ZM24.7667 15.2107C17.2417 15.2681 9.09685 15.8081 3.2864 21.2181C3.08328 21.4067 2.88744 21.6046 2.6989 21.8119C2.57702 21.9455 2.45931 22.0848 2.34577 22.2277C1.32598 23.5161 0.974932 25.5857 1.93744 27.133C2.90619 28.6896 4.37703 29.8128 5.89162 30.7287C11.5562 34.1535 18.25 34.7614 24.7761 34.7872C31.3834 34.8141 38.197 34.1371 44.0335 30.744C46.3585 29.3912 48.9752 27.4047 48.8825 24.8467C48.797 22.4995 46.7616 21.0494 45.2377 20.014C44.8251 19.7341 44.4012 19.4753 43.971 19.2316C38.1772 15.9673 31.3876 15.1943 24.7667 15.2107Z" fill="#00D8FF"/>
<path fill-rule="evenodd" clip-rule="evenodd" d="M35.5366 0.000707355C38.446 0.0838668 39.9533 4.01696 40.1522 6.92168C40.1918 7.49912 40.2064 8.07889 40.2001 8.65866C40.1939 9.28646 40.1637 9.91425 40.1147 10.5397C39.5012 18.2841 36.3564 25.6595 32.6532 32.4704C29.0313 39.1325 24.6146 45.7759 18.6063 48.8633C16.6198 49.8847 14.2573 50.5148 12.499 49.3752C10.0885 47.8139 9.82499 44.1619 9.86978 41.3919C9.88124 40.7114 9.92082 40.0309 9.98332 39.3527C10.9094 29.3267 15.4292 19.829 21.0855 11.6465C24.3855 6.87249 28.3115 2.13709 33.2022 0.422361C33.972 0.1518 34.5834 -0.0121765 35.5366 0.000707355ZM35.397 1.37342C31.9813 1.43433 28.9147 4.28049 26.199 7.23792C19.0594 15.0116 13.7979 25.3503 11.6812 36.1926C11.5177 37.0324 11.3802 37.8781 11.2792 38.7296C11.201 39.389 11.1437 40.052 11.1135 40.7172C11.0896 41.2466 11.0812 41.7772 11.0958 42.3078C11.1062 42.7224 11.1302 43.137 11.1708 43.5493C11.201 43.8644 11.2417 44.1783 11.2927 44.4899C11.3312 44.7206 11.376 44.9502 11.4281 45.1786C11.4708 45.3636 11.5187 45.5475 11.5729 45.7302C11.999 47.1744 13.0969 48.5541 14.5708 48.5998C18.0094 48.7052 21.2469 45.886 24.0459 42.822C28.9595 37.4447 32.6209 30.6877 35.4814 23.5852C37.7897 17.8507 39.9012 11.6173 38.722 5.30535C38.6772 5.06641 38.6251 4.82981 38.5657 4.59556C38.5168 4.40465 38.4616 4.21607 38.4012 4.02984C37.9428 2.6255 36.8647 1.36991 35.397 1.37342Z" fill="#00D8FF"/>
<path fill-rule="evenodd" clip-rule="evenodd" d="M14.6969 0.0521061C18.4094 0.132923 21.7438 2.9662 24.7042 6.13915C30.1063 11.9287 34.0907 19.2936 37.1137 27.045C39.4553 33.05 41.6095 39.7906 39.6949 46.1271C39.0918 48.1241 37.5657 49.9513 35.5314 49.9982C31.8011 50.0825 28.3438 47.0325 25.3438 43.7495C17.8177 35.5108 12.2302 24.6345 10.3156 13.0999C10.1781 12.2754 10.0687 11.4438 9.99374 10.6087C9.93228 9.927 9.89374 9.24181 9.88332 8.55663C9.87499 8.00379 9.8854 7.45096 9.91978 6.90047C9.94269 6.53269 9.97603 6.16726 10.0208 5.80299C10.0635 5.46099 10.1177 5.12015 10.1854 4.78283C10.2302 4.55912 10.2802 4.33775 10.3375 4.11755C10.8989 1.95892 12.3594 0.0357084 14.6969 0.0521061ZM14.5563 1.42599C12.3823 1.47987 11.3875 4.36234 11.1875 6.38511C11.1469 6.79974 11.1219 7.21788 11.1104 7.63602C11.0958 8.17011 11.1021 8.70538 11.126 9.23947C11.4677 16.9686 14.5406 24.4413 18.249 31.2838C21.7407 37.7257 25.9574 44.1419 31.7574 47.4401C33.4324 48.3924 35.4678 49.1408 36.9147 48.2413C38.7293 47.1122 38.9522 44.4218 39.0491 42.4166C39.0751 41.8708 39.0783 41.3226 39.0626 40.7757C39.0439 40.0893 38.996 39.4041 38.9241 38.7224C38.2553 32.3543 35.747 26.3282 32.8657 20.6335C29.2803 13.5497 24.8876 6.48935 18.6709 2.80105C17.3834 2.03739 15.9896 1.41311 14.5563 1.42599Z" fill="#00D8FF"/>
</svg>
