<svg width="51" height="51" viewBox="0 0 51 51" fill="none" xmlns="http://www.w3.org/2000/svg">
<path d="M41.9478 9.88043C39.8992 7.06947 36.8789 5.12035 33.4735 4.41174C30.0682 3.70313 26.5211 4.28562 23.5212 6.04605L13.0259 12.5367C11.6191 13.3845 10.4074 14.5199 9.47002 15.8687C8.53269 17.2175 7.89095 18.7491 7.58686 20.3632C7.08789 23.0631 7.52905 25.8523 8.83686 28.2664C7.94061 29.5843 7.32817 31.0741 7.03842 32.6414C6.74016 34.2775 6.78038 35.9574 7.15662 37.5773C7.53285 39.1973 8.23711 40.7229 9.22592 42.0601C11.2746 44.8714 14.2947 46.8211 17.7 47.5308C21.1054 48.2405 24.653 47.6596 27.654 45.9007L38.1509 39.4117C39.5573 38.5634 40.7687 37.4277 41.706 36.079C42.6432 34.7303 43.2852 33.199 43.59 31.5851C44.0921 28.8833 43.6508 26.091 42.34 23.6757C43.2372 22.3582 43.8502 20.8682 44.14 19.3007C44.4382 17.6641 44.3975 15.9836 44.0204 14.3633C43.6434 12.743 42.938 11.2173 41.9478 9.88043Z" fill="#FF3E00"/>
<path d="M22.4978 42.5991C20.8567 43.0199 19.1271 42.9383 17.533 42.3647C15.9389 41.791 14.5538 40.7519 13.5572 39.3819C12.9604 38.5787 12.5349 37.6616 12.307 36.6873C12.079 35.7131 12.0536 34.7024 12.2322 33.7178C12.2916 33.3945 12.3746 33.0759 12.4806 32.7647L12.679 32.1788L13.2165 32.5506C14.4643 33.4393 15.8523 34.1122 17.3228 34.5413L17.7056 34.6553L17.6665 35.0256C17.6216 35.5643 17.7719 36.1011 18.09 36.5381C18.389 36.9611 18.8099 37.2828 19.2965 37.4603C19.7831 37.6379 20.3123 37.6628 20.8134 37.5319C21.0398 37.473 21.2563 37.3809 21.4556 37.2585L31.9244 30.7678C32.1793 30.6133 32.399 30.4071 32.5693 30.1624C32.7397 29.9178 32.8569 29.6402 32.9134 29.3475C32.9697 29.0524 32.9649 28.7489 32.8994 28.4557C32.8338 28.1625 32.7088 27.8858 32.5322 27.6428C32.2316 27.2295 31.8138 26.9159 31.333 26.7427C30.8522 26.5694 30.3305 26.5444 29.8353 26.671C29.6077 26.7299 29.3902 26.8226 29.19 26.946L25.1712 29.421C24.5107 29.8297 23.7922 30.1363 23.04 30.3303C21.3976 30.7523 19.6664 30.671 18.0708 30.0971C16.4752 29.5232 15.0888 28.483 14.0915 27.1116C13.4987 26.3058 13.0776 25.387 12.8543 24.4119C12.6309 23.4368 12.6101 22.4263 12.7931 21.4428C12.9775 20.474 13.3634 19.5548 13.9257 18.7446C14.4879 17.9344 15.2141 17.2514 16.0572 16.7397L26.5384 10.2491C27.199 9.84081 27.9176 9.53475 28.6697 9.34126C30.3121 8.91836 32.0437 8.99899 33.6397 9.5727C35.2357 10.1464 36.6224 11.1867 37.6197 12.5585C38.2164 13.3616 38.6418 14.2788 38.8697 15.253C39.0977 16.2273 39.1232 17.238 38.9447 18.2225C38.8854 18.5459 38.8024 18.8645 38.6962 19.1756L38.4978 19.7616L37.9603 19.3913C36.7133 18.5014 35.325 17.8284 33.854 17.4006L33.4712 17.285L33.5103 16.9147C33.5552 16.3758 33.4044 15.8388 33.0853 15.4022C32.7855 14.9884 32.3681 14.6743 31.8874 14.501C31.4067 14.3277 30.8849 14.303 30.39 14.4303C30.1633 14.489 29.9467 14.5818 29.7478 14.7053L19.2447 21.1741C18.9897 21.3278 18.7701 21.5336 18.6002 21.7781C18.4302 22.0226 18.3139 22.3003 18.2587 22.5928C18.201 22.8881 18.205 23.1922 18.2706 23.4859C18.3363 23.7795 18.462 24.0564 18.64 24.2991C18.9408 24.7121 19.3586 25.0254 19.8394 25.1984C20.3202 25.3713 20.8418 25.3961 21.3369 25.2694C21.5642 25.2103 21.7816 25.1181 21.9822 24.996L25.9853 22.5194C26.6456 22.1104 27.3642 21.8043 28.1165 21.6116C29.759 21.1895 31.4903 21.2706 33.0861 21.8442C34.682 22.4179 36.0687 23.4576 37.0665 24.8288C37.6617 25.6326 38.0857 26.55 38.3122 27.5243C38.5388 28.4985 38.5631 29.5088 38.3837 30.4928C38.2006 31.4627 37.8153 32.3831 37.2529 33.1942C36.6905 34.0053 35.9637 34.689 35.1197 35.2006L24.64 41.6913C23.9797 42.1002 23.2611 42.4063 22.5087 42.5991" fill="white"/>
</svg>
